# Blender v2.79 (sub 0) OBJ File: 'kitchen_table5.blend'
# www.blender.org
mtllib kitchen_table5.mtl
o Cube.004
v 1.000000 1.000000 -0.999999
v 0.999999 1.000000 1.000001
v -1.000000 1.000000 1.000000
v -1.000000 1.000000 -1.000000
v 1.000000 0.750000 -1.000000
v 0.999999 0.750000 1.000000
v -1.000000 0.750000 1.000000
v -1.000000 0.750000 -1.000000
vt 0.499829 0.000171
vt 0.499829 0.499830
vt 0.000171 0.499829
vt 0.000171 0.000171
vt 0.000171 0.751024
vt 0.000171 0.688567
vt 0.499829 0.688567
vt 0.499829 0.751024
vt 0.499829 0.562969
vt 0.499829 0.625427
vt 0.000171 0.625427
vt 0.000171 0.562969
vt 0.499829 0.688225
vt 0.000171 0.688225
vt 0.000171 0.625768
vt 0.499829 0.625768
vt 0.000171 0.500171
vt 0.499830 0.500171
vt 0.499830 0.562628
vt 0.000171 0.562628
vt 0.999829 0.000171
vt 0.999829 0.499829
vt 0.500171 0.499829
vt 0.500171 0.000171
vn 0.0000 -1.0000 -0.0000
vn -1.0000 0.0000 -0.0000
vn 0.0000 0.0000 -1.0000
vn -0.0000 -0.0000 1.0000
vn 1.0000 0.0000 0.0000
vn 0.0000 1.0000 0.0000
usemtl Material.001
s off
f 1/1/1 2/2/1 3/3/1 4/4/1
f 1/5/2 5/6/2 6/7/2 2/8/2
f 2/9/3 6/10/3 7/11/3 3/12/3
f 1/13/4 4/14/4 8/15/4 5/16/4
f 4/17/5 3/18/5 7/19/5 8/20/5
f 5/21/6 8/22/6 7/23/6 6/24/6
