# Blender v2.79 (sub 0) OBJ File: 'kitchen_wooden_cabinet_door.blend'
# www.blender.org
mtllib kitchen_wooden_cabinet_door.mtl
o Cube.002
v 1.000000 -1.000000 -1.000000
v 1.000000 -1.000000 1.000000
v 1.000000 1.000000 -0.999999
v 0.999999 1.000000 1.000001
v 0.822775 -1.000000 -1.000000
v 0.795964 1.000000 1.000000
v 0.807836 -1.000000 1.000000
v 0.815106 1.000000 -1.000000
v 0.990467 -0.407160 0.761661
v 0.990467 -0.208672 0.761661
v 0.990467 -0.407160 0.563173
v 0.990467 -0.208672 0.563173
v 1.103518 -0.407160 0.761661
v 1.103518 -0.208672 0.761661
v 1.103518 -0.407160 0.563173
v 1.103518 -0.208672 0.563173
v 1.102021 -0.497998 0.852498
v 1.102021 -0.117834 0.852498
v 1.102021 -0.497998 0.472335
v 1.102021 -0.117834 0.472335
v 1.219632 -0.497998 0.852498
v 1.219632 -0.117834 0.852498
v 1.219632 -0.497998 0.472335
v 1.219632 -0.117834 0.472335
vn -1.0000 -0.0049 -0.0085
vn 0.0000 -1.0000 -0.0000
vn 0.0000 1.0000 0.0000
vn 1.0000 0.0000 0.0000
vn 0.0000 -0.0000 1.0000
vn 0.0000 0.0000 -1.0000
vn -1.0000 0.0000 0.0000
usemtl Material.001
s off
f 7//1 6//1 8//1 5//1
f 1//2 2//2 7//2 5//2
f 3//3 8//3 6//3 4//3
f 1//4 3//4 4//4 2//4
f 2//5 4//5 6//5 7//5
f 3//6 1//6 5//6 8//6
f 9//7 10//7 12//7 11//7
f 11//6 12//6 16//6 15//6
f 15//4 16//4 14//4 13//4
f 13//5 14//5 10//5 9//5
f 11//2 15//2 13//2 9//2
f 16//3 12//3 10//3 14//3
f 17//7 18//7 20//7 19//7
f 19//6 20//6 24//6 23//6
f 23//4 24//4 22//4 21//4
f 21//5 22//5 18//5 17//5
f 19//2 23//2 21//2 17//2
f 24//3 20//3 18//3 22//3
