# Blender v2.79 (sub 0) OBJ File: 'kitchen_wooden_cabinet.blend'
# www.blender.org
mtllib kitchen_wooden_cabinet.mtl
o Cube.000
v 1.000000 -1.000000 0.905210
v -1.000000 -1.000000 0.905210
v 1.000000 1.000000 0.905210
v -1.000000 1.000000 0.905210
v -1.000000 -1.000000 -0.917565
v 1.000000 1.000000 -0.890754
v 1.000000 -1.000000 -0.902626
v -1.000000 1.000000 -0.909896
v 0.834275 -0.834275 0.749979
v -0.834276 -0.834275 0.749979
v 0.834275 0.834276 0.749980
v -0.834276 0.834276 0.749979
v -0.834276 -0.834275 -0.915428
v 0.834276 0.834276 -0.890932
v 0.834276 -0.834275 -0.901778
v -0.834275 0.834276 -0.908421
v 0.833681 -0.078480 0.748138
v 0.833681 0.078480 0.748138
v -0.833681 -0.078480 0.748138
v -0.833681 0.078480 0.748138
v 0.833681 -0.078480 -0.897570
v 0.833681 0.078480 -0.897570
v -0.833681 -0.078480 -0.911581
v -0.833681 0.078480 -0.911581
vn -0.0000 -0.0000 1.0000
vn 1.0000 -0.0000 0.0000
vn 0.0000 -1.0000 0.0000
vn 0.0000 1.0000 0.0000
vn -1.0000 0.0000 -0.0000
vn 0.0078 0.0090 -0.9999
vn -0.0020 0.0062 -1.0000
vn 0.0100 -0.0039 -0.9999
vn 0.0109 0.0040 -0.9999
vn 0.0084 0.0000 -1.0000
usemtl Material.001
s off
f 1//1 3//1 4//1 2//1
f 7//2 6//2 3//2 1//2
f 5//3 7//3 1//3 2//3
f 6//4 8//4 4//4 3//4
f 8//5 5//5 2//5 4//5
f 9//1 11//1 12//1 10//1
f 15//2 14//2 11//2 9//2
f 13//3 15//3 9//3 10//3
f 14//4 16//4 12//4 11//4
f 16//5 13//5 10//5 12//5
f 7//6 5//6 13//6 15//6
f 6//7 7//7 15//7 14//7
f 8//8 6//8 14//8 16//8
f 5//9 8//9 16//9 13//9
f 17//1 18//1 20//1 19//1
f 19//5 20//5 24//5 23//5
f 23//10 24//10 22//10 21//10
f 21//2 22//2 18//2 17//2
f 19//3 23//3 21//3 17//3
f 24//4 20//4 18//4 22//4
