# Blender v2.79 (sub 0) OBJ File: 'kitchen_table4.blend'
# www.blender.org
mtllib kitchen_table4.mtl
o Cube.004
v 1.000000 1.000000 -0.999999
v 0.999999 1.000000 1.000001
v -1.000000 1.000000 1.000000
v -1.000000 1.000000 -1.000000
v 1.000000 0.750000 -1.000000
v 0.999999 0.750000 1.000000
v -1.000000 0.750000 1.000000
v -1.000000 0.750000 -1.000000
v 0.559222 0.094069 0.999995
v 0.559222 -0.028484 0.999995
v 0.681774 0.094069 0.999995
v 0.681774 -0.028484 0.999995
v 0.681774 -0.028484 -1.000005
v 0.559222 -0.028484 -1.000005
v 0.681774 0.094069 -1.000005
v 0.559222 0.094069 -1.000005
vn 0.0000 0.0000 -1.0000
vn 0.0000 -1.0000 -0.0000
vn -1.0000 0.0000 -0.0000
vn -0.0000 -0.0000 1.0000
vn 1.0000 0.0000 0.0000
vn 0.0000 1.0000 0.0000
usemtl Material.001
s off
f 10//1 9//1 11//1 12//1
f 1//2 2//2 3//2 4//2
f 1//3 5//3 6//3 2//3
f 2//1 6//1 7//1 3//1
f 1//4 4//4 8//4 5//4
f 4//5 3//5 7//5 8//5
f 5//6 8//6 7//6 6//6
f 14//6 10//6 12//6 13//6
f 13//3 12//3 11//3 15//3
f 14//5 16//5 9//5 10//5
f 16//2 15//2 11//2 9//2
f 13//4 15//4 16//4 14//4
