# Blender v2.79 (sub 0) OBJ File: 'kitchen_wooden_half_cabinet_2.blend'
# www.blender.org
mtllib kitchen_wooden_half_cabinet_2.mtl
o Cube.000
v 1.000000 1.000000 1.000000
v -1.000000 1.000000 1.000000
v 1.000000 1.000000 -1.000000
v -1.000000 1.000000 -1.000000
v 0.834275 -0.079140 0.900000
v -0.834276 -0.079140 0.900000
v 0.834275 0.834276 0.900000
v -0.834276 0.834276 0.900000
v -0.834276 -0.079140 -1.000000
v 0.834276 0.834276 -1.000000
v 0.834276 -0.079140 -1.000000
v -0.834275 0.834276 -1.000000
v 0.833681 -0.078480 0.900000
v 0.833681 0.078480 0.900000
v -0.833681 -0.078480 0.900000
v -0.833681 0.078480 0.900000
v 0.833681 -0.078480 -1.000000
v 0.833681 0.078480 -1.000000
v -0.833681 -0.078480 -1.000000
v -0.833681 0.078480 -1.000000
v -1.000000 -0.078460 -1.000000
v -0.834275 -0.078464 -1.000000
v -1.000000 -0.078460 1.000000
v 1.000000 -0.078460 1.000000
v 1.000000 -0.078460 -1.000000
v 0.834276 -0.078460 -1.000000
v -0.738081 0.166833 -1.802671
v 0.738081 0.166833 -1.802670
v 0.738081 0.166833 -0.098977
v -0.738081 0.166833 -0.098978
v -0.738081 0.166833 -0.950824
v -0.000000 0.166833 -0.098977
v 0.738081 0.166833 -0.950824
v 0.000000 0.166833 -1.802671
v -0.830930 0.828904 -1.897321
v 0.830931 0.828904 -1.897320
v 0.830930 0.828904 -0.004327
v -0.830930 0.828904 -0.004328
v -0.830930 0.082295 -1.897321
v 0.830930 0.082295 -1.897320
v 0.830930 0.082295 -0.004328
v -0.830930 0.082295 -0.004328
v 0.000000 0.828904 -1.897320
v -0.830930 0.828904 -0.950824
v 0.830930 0.828904 -0.950824
v -0.000000 0.828904 -0.004328
v -0.830930 0.082295 -0.950824
v -0.000000 0.082295 -0.004328
v 0.830930 0.082295 -0.950824
v 0.000000 0.082295 -1.897320
v -0.738081 0.828904 -0.098977
v -0.000000 0.828904 -0.098977
v 0.738081 0.828904 -0.098977
v 0.738081 0.828904 -0.950824
v 0.738082 0.828904 -1.802670
v -0.738081 0.828904 -0.950824
v 0.000000 0.828904 -1.802670
v -0.738081 0.828904 -1.802671
v -0.111832 0.556504 -2.078428
v -0.111832 0.355303 -2.078428
v 0.111832 0.556504 -2.078428
v 0.111832 0.355303 -2.078428
v -0.111832 0.556504 -1.955428
v -0.111832 0.355303 -1.955428
v 0.111832 0.556504 -1.955428
v 0.111832 0.355303 -1.955428
v -0.051323 0.502072 -1.955145
v -0.051323 0.409735 -1.955145
v 0.051323 0.502072 -1.955145
v 0.051323 0.409735 -1.955145
v -0.051323 0.502072 -1.897652
v -0.051323 0.409735 -1.897652
v 0.051323 0.502072 -1.897652
v 0.051323 0.409735 -1.897652
vt 0.338823 0.335282
vt 0.338823 0.151611
vt 0.522494 0.151611
vt 0.522494 0.335281
vt 0.688971 0.513318
vt 0.688971 0.612359
vt 0.505300 0.612359
vt 0.505300 0.513318
vt 0.154776 0.733181
vt 0.154805 0.649297
vt 0.308037 0.649350
vt 0.308008 0.733234
vt 0.697391 0.251426
vt 0.698852 0.335123
vt 0.697391 0.335135
vt 0.523268 0.335135
vt 0.523268 0.251426
vt 0.246398 0.336483
vt 0.246412 0.335683
vt 0.154776 0.334883
vt 0.154776 0.151611
vt 0.338048 0.151611
vt 0.338048 0.334883
vt 0.246439 0.337282
vt 0.246418 0.336966
vt 0.329263 0.338056
vt 0.329263 0.491289
vt 0.154776 0.491289
vt 0.154776 0.338056
vt 0.503516 0.645346
vt 0.503882 0.687266
vt 0.503516 0.729186
vt 0.329120 0.729186
vt 0.329120 0.645346
vt 0.307138 0.591104
vt 0.307138 0.492063
vt 0.322357 0.492063
vt 0.322357 0.575885
vt 0.688971 0.797508
vt 0.505300 0.797508
vt 0.520519 0.782289
vt 0.673751 0.782289
vt 0.351402 0.827887
vt 0.351402 0.813472
vt 0.504525 0.813472
vt 0.504525 0.827887
vt 0.154776 0.817763
vt 0.154776 0.803349
vt 0.329264 0.803349
vt 0.329264 0.817763
vt 0.658423 0.813472
vt 0.658423 0.827887
vt 0.505300 0.827887
vt 0.505300 0.813472
vt 0.679788 0.798283
vt 0.679788 0.812698
vt 0.505300 0.812698
vt 0.505300 0.798283
vt 0.505300 0.512544
vt 0.505300 0.338056
vt 0.658423 0.338056
vt 0.658423 0.512544
vt 0.504525 0.491179
vt 0.330038 0.491179
vt 0.330038 0.338056
vt 0.504525 0.338056
vt 0.291144 0.492063
vt 0.306363 0.492069
vt 0.306329 0.591110
vt 0.291115 0.575885
vt 0.688971 0.712175
vt 0.505300 0.712175
vt 0.505300 0.613134
vt 0.688971 0.613134
vt 0.523268 0.151611
vt 0.706939 0.151611
vt 0.706939 0.250651
vt 0.523268 0.250651
vt 0.829551 0.756126
vt 0.829551 0.823908
vt 0.768750 0.823908
vt 0.768750 0.756126
vt 0.808076 0.338056
vt 0.808076 0.416286
vt 0.747275 0.416286
vt 0.747275 0.338056
vt 0.777442 0.513318
vt 0.845224 0.513318
vt 0.845224 0.574120
vt 0.777442 0.574120
vt 0.777054 0.220167
vt 0.844836 0.220167
vt 0.844836 0.280969
vt 0.777054 0.280969
vt 0.807696 0.425509
vt 0.807696 0.503739
vt 0.746894 0.503739
vt 0.746894 0.425509
vt 0.837855 0.151611
vt 0.837855 0.219393
vt 0.777054 0.219393
vt 0.777054 0.151611
vt 0.290340 0.492063
vt 0.290340 0.648523
vt 0.154776 0.648523
vt 0.154776 0.492063
vt 0.669305 0.712949
vt 0.669305 0.781514
vt 0.592996 0.781514
vt 0.592996 0.712949
vt 0.592222 0.712949
vt 0.592222 0.781514
vt 0.505300 0.781514
vt 0.505300 0.712949
vt 0.474769 0.806270
vt 0.406204 0.806270
vt 0.406204 0.729961
vt 0.474769 0.729961
vt 0.707714 0.239307
vt 0.776279 0.239307
vt 0.776279 0.326229
vt 0.707714 0.326229
vt 0.776279 0.238533
vt 0.707714 0.238533
vt 0.707714 0.151611
vt 0.776279 0.151611
vt 0.154776 0.802574
vt 0.154776 0.734009
vt 0.231085 0.734009
vt 0.231085 0.802574
vt 0.776667 0.686787
vt 0.776667 0.755352
vt 0.689745 0.755352
vt 0.689745 0.686787
vt 0.405429 0.729961
vt 0.405429 0.798526
vt 0.329120 0.798526
vt 0.329120 0.729961
vt 0.736860 0.424734
vt 0.728238 0.423636
vt 0.660465 0.424734
vt 0.659198 0.346515
vt 0.660275 0.338056
vt 0.746500 0.349037
vt 0.776667 0.686012
vt 0.689745 0.686012
vt 0.689745 0.677485
vt 0.700884 0.600052
vt 0.767975 0.609703
vt 0.776667 0.609703
vt 0.746119 0.511469
vt 0.659198 0.511469
vt 0.659198 0.435160
vt 0.667890 0.435160
vt 0.734981 0.425509
vt 0.746119 0.502942
vt 0.330038 0.644572
vt 0.330038 0.491954
vt 0.503882 0.491954
vt 0.503882 0.644572
vt 0.231859 0.794810
vt 0.231859 0.734009
vt 0.310089 0.734009
vt 0.310089 0.794810
vt 0.776667 0.521845
vt 0.765529 0.599278
vt 0.698438 0.589627
vt 0.689746 0.589627
vt 0.689745 0.513319
vt 0.776667 0.513318
vt 0.689745 0.816928
vt 0.689745 0.756126
vt 0.767975 0.756126
vt 0.767975 0.816928
vt 0.327684 0.591886
vt 0.327678 0.610363
vt 0.307138 0.610356
vt 0.307144 0.591879
vt 0.327682 0.653763
vt 0.309204 0.653763
vt 0.309204 0.642467
vt 0.327682 0.642467
vt 0.307138 0.629615
vt 0.307138 0.611138
vt 0.327678 0.611138
vt 0.327678 0.629615
vt 0.291115 0.610362
vt 0.291115 0.591884
vt 0.302410 0.591884
vt 0.302410 0.610362
vt 0.307138 0.641685
vt 0.307142 0.630390
vt 0.327682 0.630397
vt 0.327678 0.641693
vt 0.475543 0.741257
vt 0.475547 0.729961
vt 0.496087 0.729968
vt 0.496084 0.741264
vt 0.300541 0.611136
vt 0.300541 0.619616
vt 0.291115 0.619616
vt 0.291115 0.611136
vt 0.299595 0.647034
vt 0.291115 0.647034
vt 0.291115 0.641754
vt 0.299595 0.641754
vt 0.291115 0.628871
vt 0.291115 0.620391
vt 0.300541 0.620391
vt 0.300541 0.628871
vt 0.323132 0.500543
vt 0.323132 0.492063
vt 0.328412 0.492063
vt 0.328412 0.500543
vt 0.291115 0.634925
vt 0.291115 0.629645
vt 0.300541 0.629645
vt 0.300541 0.634925
vt 0.291115 0.640980
vt 0.291115 0.635700
vt 0.300541 0.635700
vt 0.300541 0.640980
vn 0.0000 1.0000 0.0000
vn -1.0000 0.0000 -0.0000
vn 0.0000 -0.0000 1.0000
vn 1.0000 -0.0000 0.0000
vn 0.0000 -1.0000 0.0000
vn 0.0000 0.0000 -1.0000
usemtl Material.001
s off
f 3/1/1 4/2/1 2/3/1 1/4/1
f 4/5/2 21/6/2 23/7/2 2/8/2
f 5/9/3 7/10/3 8/11/3 6/12/3
f 11/13/4 26/14/4 10/15/4 7/16/4 5/17/4
f 17/18/5 26/19/5 25/20/5 24/21/5 23/22/5 21/23/5 22/24/5 19/25/5
f 10/26/1 12/27/1 8/28/1 7/29/1
f 12/30/2 22/31/2 9/32/2 6/33/2 8/34/2
f 3/35/6 25/36/6 26/37/6 10/38/6
f 4/39/6 3/40/6 10/41/6 12/42/6
f 13/43/3 14/44/3 16/45/3 15/46/3
f 15/47/2 16/48/2 20/49/2 19/50/2
f 19/51/6 20/52/6 18/53/6 17/54/6
f 17/55/4 18/56/4 14/57/4 13/58/4
f 15/59/5 19/60/5 17/61/5 13/62/5
f 20/63/1 16/64/1 14/65/1 18/66/1
f 22/67/6 21/68/6 4/69/6 12/70/6
f 23/71/3 24/72/3 1/73/3 2/74/3
f 24/75/4 25/76/4 3/77/4 1/78/4
usemtl Material.002
f 34/79/3 28/80/3 55/81/3 57/82/3
f 33/83/2 29/84/2 53/85/2 54/86/2
f 32/87/6 30/88/6 51/89/6 52/90/6
f 29/91/6 32/92/6 52/93/6 53/94/6
f 28/95/2 33/96/2 54/97/2 55/98/2
f 27/99/3 34/100/3 57/101/3 58/102/3
f 30/103/5 27/104/5 28/105/5 29/106/5
f 50/107/6 43/108/6 36/109/6 40/110/6
f 49/111/4 45/112/4 37/113/4 41/114/4
f 48/115/3 46/116/3 38/117/3 42/118/3
f 44/119/2 47/120/2 42/121/2 38/122/2
f 35/123/2 39/124/2 47/125/2 44/126/2
f 41/127/3 37/128/3 46/129/3 48/130/3
f 40/131/4 36/132/4 45/133/4 49/134/4
f 39/135/6 35/136/6 43/137/6 50/138/6
f 43/139/1 57/140/1 55/141/1 54/142/1 45/143/1 36/144/1
f 35/145/1 44/146/1 56/147/1 58/148/1 57/149/1 43/150/1
f 44/151/1 38/152/1 46/153/1 52/154/1 51/155/1 56/156/1
f 42/157/1 41/158/1 40/159/1 39/160/1
f 56/161/4 31/162/4 27/163/4 58/164/4
f 54/165/1 53/166/1 52/167/1 46/168/1 37/169/1 45/170/1
f 51/171/4 30/172/4 31/173/4 56/174/4
f 59/175/3 60/176/3 62/177/3 61/178/3
f 61/179/2 62/180/2 66/181/2 65/182/2
f 65/183/6 66/184/6 64/185/6 63/186/6
f 63/187/4 64/188/4 60/189/4 59/190/4
f 61/191/5 65/192/5 63/193/5 59/194/5
f 66/195/1 62/196/1 60/197/1 64/198/1
f 67/199/3 68/200/3 70/201/3 69/202/3
f 69/203/2 70/204/2 74/205/2 73/206/2
f 73/207/6 74/208/6 72/209/6 71/210/6
f 71/211/4 72/212/4 68/213/4 67/214/4
f 69/215/5 73/216/5 71/217/5 67/218/5
f 74/219/1 70/220/1 68/221/1 72/222/1
