# Blender v2.79 (sub 0) OBJ File: 'kitchen_table3.blend'
# www.blender.org
mtllib kitchen_table3.mtl
o Cube.004
v 1.000000 1.000000 -0.999999
v 0.999999 1.000000 1.000001
v -1.000000 1.000000 1.000000
v -1.000000 1.000000 -1.000000
v 1.000000 0.750000 -1.000000
v 0.999999 0.750000 1.000000
v -1.000000 0.750000 1.000000
v -1.000000 0.750000 -1.000000
v -0.686276 -0.028484 0.999995
v -0.686276 0.094069 0.999995
v -0.563724 -0.028484 0.999995
v -0.563724 0.094069 0.999995
v -0.686276 0.094069 -1.000005
v -0.686276 -0.028484 -1.000005
v -0.563724 0.094069 -1.000005
v -0.563724 -0.028484 -1.000005
v 0.559222 0.094069 0.999995
v 0.559222 -0.028484 0.999995
v 0.681774 0.094069 0.999995
v 0.681774 -0.028484 0.999995
v 0.681774 -0.028484 -1.000005
v 0.559222 -0.028484 -1.000005
v 0.681774 0.094069 -1.000005
v 0.559222 0.094069 -1.000005
vn 0.0000 0.0000 -1.0000
vn 0.0000 -1.0000 -0.0000
vn -1.0000 0.0000 -0.0000
vn -0.0000 -0.0000 1.0000
vn 1.0000 0.0000 0.0000
vn 0.0000 1.0000 0.0000
usemtl Material.001
s off
f 18//1 17//1 19//1 20//1
f 1//2 2//2 3//2 4//2
f 1//3 5//3 6//3 2//3
f 2//1 6//1 7//1 3//1
f 1//4 4//4 8//4 5//4
f 4//5 3//5 7//5 8//5
f 14//1 13//1 15//1 16//1
f 11//4 12//4 10//4 9//4
f 12//6 15//6 13//6 10//6
f 9//2 14//2 16//2 11//2
f 9//3 10//3 13//3 14//3
f 11//5 16//5 15//5 12//5
f 5//6 8//6 7//6 6//6
f 22//6 18//6 20//6 21//6
f 21//3 20//3 19//3 23//3
f 22//5 24//5 17//5 18//5
f 24//2 23//2 19//2 17//2
f 21//4 23//4 24//4 22//4
