# Blender v2.79 (sub 0) OBJ File: 'kitchen_wooden_cuisine.blend'
# www.blender.org
mtllib kitchen_wooden_cuisine.mtl
o Cube
v 0.894929 -0.037034 0.903151
v -0.894929 -0.037034 0.903150
v 0.894929 -0.930920 0.903151
v -0.894929 -0.930920 0.903150
v -0.894929 -0.037034 -0.096850
v 0.894929 -0.037034 -0.096849
v -0.000000 -0.037034 0.903150
v -0.894929 -0.930920 -0.096850
v -0.000000 -0.930920 0.903150
v 0.894929 -0.930920 -0.096849
v 0.894929 -0.037034 0.903151
v -0.894929 -0.037034 0.903150
v 0.894929 -0.930920 0.903151
v -0.894929 -0.930920 0.903150
v -0.894929 -0.037034 -0.096850
v 0.894929 -0.037034 -0.096849
v -0.000000 -0.037034 0.903150
v -0.894929 -0.930920 -0.096850
v -0.000000 -0.930920 0.903150
v 0.894929 -0.930920 -0.096849
v 0.894929 0.925490 0.904352
v -0.894929 0.925490 0.904352
v 0.894929 0.031604 0.904352
v -0.894929 0.031604 0.904352
v -0.894929 0.925490 -0.095648
v 0.894929 0.925490 -0.095648
v -0.000000 0.925490 0.904352
v -0.894929 0.031604 -0.095648
v -0.000000 0.031604 0.904352
v 0.894929 0.031604 -0.095648
v 0.894929 0.925490 0.904352
v -0.894929 0.925490 0.904352
v 0.894929 0.031604 0.904352
v -0.894929 0.031604 0.904352
v -0.894929 0.925490 -0.095648
v 0.894929 0.925490 -0.095648
v -0.000000 0.925490 0.904352
v -0.894929 0.031604 -0.095648
v -0.000000 0.031604 0.904352
v 0.894929 0.031604 -0.095648
v -1.000000 -1.000000 -1.000000
v 1.000000 -1.000000 -1.000000
v 1.000000 -1.000000 1.000000
v -1.000000 -1.000000 1.000000
v -1.000000 1.000000 -1.000000
v 1.000001 1.000000 -0.999999
v 1.000000 1.000000 1.000000
v -1.000000 1.000000 1.000000
v 0.894929 0.031604 -1.000000
v 0.894929 0.031604 -1.000000
v 0.894930 0.925490 -0.999999
v 0.894930 0.925490 -0.999999
v 0.894930 0.925490 -1.000000
v 0.894930 0.925490 -1.000000
v -0.894929 0.925490 -1.000000
v -0.894929 0.117103 -1.000000
v -0.894929 0.925490 -1.000000
v -0.894929 0.117103 -1.000000
v -0.894929 0.031604 -1.000000
v -0.894929 0.031604 -1.000000
v -0.894929 0.031604 -1.000000
v -0.894929 0.031604 -1.000000
v 0.894929 0.031604 -1.000000
v 0.894929 0.031604 -1.000000
v 0.894929 -0.930920 -1.000000
v 0.894929 -0.930920 -1.000000
v 0.894930 -0.037034 -1.000000
v 0.894930 -0.037034 -1.000000
v 0.894930 -0.037034 -1.000000
v 0.894930 -0.037034 -1.000000
v -0.894929 -0.844347 -1.000000
v -0.894929 -0.037034 -1.000000
v -0.894929 -0.844347 -1.000000
v -0.894929 -0.037034 -1.000000
v -0.894929 -0.930920 -1.000000
v -0.894929 -0.930920 -1.000000
v -0.894929 -0.930920 -1.000000
v -0.894929 -0.930920 -1.000000
v 0.894929 -0.930920 -1.000000
v 0.894929 -0.930920 -1.000000
vn -1.0000 0.0000 -0.0000
vn 0.0000 0.0000 -1.0000
vn 1.0000 -0.0000 0.0000
vn 0.0000 -1.0000 0.0000
vn 0.0000 1.0000 -0.0000
vn -0.0000 -0.0000 1.0000
usemtl Material
s off
f 10//1 3//1 1//1 6//1
f 9//2 4//2 2//2 7//2
f 5//3 2//3 4//3 8//3
f 3//2 9//2 7//2 1//2
f 4//4 75//4 80//4 3//4
f 20//1 13//1 11//1 16//1
f 19//2 14//2 12//2 17//2
f 15//3 12//3 14//3 18//3
f 13//2 19//2 17//2 11//2
f 14//4 77//4 79//4 13//4
f 30//1 23//1 21//1 26//1
f 29//2 24//2 22//2 27//2
f 25//3 22//3 24//3 28//3
f 23//2 29//2 27//2 21//2
f 24//4 59//4 64//4 23//4
f 40//1 33//1 31//1 36//1
f 39//2 34//2 32//2 37//2
f 35//3 32//3 34//3 38//3
f 33//2 39//2 37//2 31//2
f 34//4 61//4 63//4 33//4
f 41//4 42//4 43//4 44//4
f 45//5 48//5 47//5 46//5
f 41//2 45//2 59//2 64//2 46//2 42//2 70//2 72//2 71//2
f 42//3 46//3 47//3 43//3
f 43//6 47//6 48//6 44//6
f 45//1 41//1 44//1 48//1
f 54//4 31//4 37//4 32//4 35//4 55//4
f 46//2 64//2 54//2
f 55//3 35//3 38//3 62//3 56//3
f 53//4 21//4 27//4 22//4 25//4 57//4
f 57//3 25//3 28//3 60//3 58//3
f 54//2 55//2 56//2 45//2 46//2
f 45//2 56//2 59//2
f 70//4 11//4 17//4 12//4 15//4 72//4
f 42//2 41//2 78//2 80//2
f 42//2 80//2 70//2
f 72//3 15//3 18//3 78//3 71//3
f 69//4 1//4 7//4 2//4 5//4 74//4
f 74//3 5//3 8//3 76//3 73//3
f 41//2 73//2 78//2
l 67 6
l 65 10
l 68 16
l 66 20
l 51 26
l 49 30
l 52 36
l 50 40
l 58 45
l 53 46
l 61 45
l 63 46
l 69 42
l 75 73
l 77 73
l 79 42
