# Blender v2.79 (sub 0) OBJ File: 'kitchen_wooden_table.blend'
# www.blender.org
mtllib kitchen_wooden_table.mtl
o Cube.004
v -0.502477 -0.028484 -0.677112
v -0.502477 0.094069 -0.677112
v 0.496517 -0.028484 -0.677112
v 0.496517 0.094069 -0.677112
v -0.502477 -0.028484 -0.554560
v -0.502477 0.094069 -0.554560
v 0.496517 -0.028484 -0.554560
v 0.496517 0.094069 -0.554560
v 0.681774 -0.028484 -0.507255
v 0.681774 0.094069 -0.507255
v 0.681774 -0.028484 0.491740
v 0.681774 0.094069 0.491740
v 0.559222 -0.028484 -0.507255
v 0.559222 0.094069 -0.507255
v 0.559222 -0.028484 0.491740
v 0.559222 0.094069 0.491740
v -0.686276 -0.028484 0.499497
v -0.686276 0.094069 0.499497
v -0.686276 -0.028484 -0.499497
v -0.686276 0.094069 -0.499497
v -0.563724 -0.028484 0.499497
v -0.563724 0.094069 0.499497
v -0.563724 -0.028484 -0.499497
v -0.563724 0.094069 -0.499497
v 0.499497 -0.028484 0.687802
v 0.499497 0.094069 0.687802
v -0.499497 -0.028484 0.687802
v -0.499497 0.094069 0.687802
v 0.499497 -0.028484 0.565249
v 0.499497 0.094069 0.565249
v -0.499497 -0.028484 0.565249
v -0.499497 0.094069 0.565249
v 1.000000 1.000000 -0.999999
v 0.999999 1.000000 1.000001
v -1.000000 1.000000 1.000000
v -1.000000 1.000000 -1.000000
v -0.500000 -1.000000 -0.500000
v 0.500000 -1.000000 0.500000
v 0.500000 -1.000000 -0.500000
v -0.500000 -1.000000 0.500000
v 0.750000 -1.000000 -0.500000
v 0.750000 -1.000000 -0.750000
v 0.500000 -1.000000 -0.750000
v -0.750000 -1.000000 -0.500000
v -0.500000 -1.000000 -0.750000
v 1.000000 0.750000 -1.000000
v 0.999999 0.750000 1.000000
v -1.000000 0.750000 1.000000
v -1.000000 0.750000 -1.000000
v -1.000000 0.750000 -0.500000
v 0.500000 0.750000 0.000000
v -1.000000 0.750000 0.500000
v -0.500000 0.750000 1.000000
v -0.750000 -1.000000 -0.750000
v 0.750000 -1.000000 0.500000
v 0.750000 -1.000000 0.750000
v 0.500000 -1.000000 0.750000
v -0.750000 -1.000000 0.500000
v -0.500000 -1.000000 0.750000
v -0.750000 -1.000000 0.750000
v -0.750000 0.750000 -0.250000
v 0.250000 0.750000 -0.250000
v -0.750000 0.750000 0.750000
v 0.250000 0.750000 0.750000
v 0.250000 0.750000 0.250000
v 0.750000 0.750000 0.250000
v 1.000000 0.750000 -0.500000
v -0.000000 0.750000 0.500000
v 1.000000 0.750000 0.500000
v 0.500000 0.750000 1.000000
v 0.750000 0.750000 0.750000
v -0.750000 0.750000 -0.750000
v -0.250000 0.750000 -0.750000
v -0.250000 0.750000 -0.250000
v 0.250000 0.750000 -0.750000
v 0.750000 0.750000 -0.750000
v 0.750000 0.750000 -0.250000
v -0.750000 0.750000 0.250000
v -0.250000 0.750000 0.250000
v -0.250000 0.750000 0.750000
v -1.000000 0.750000 0.750000
v -0.500000 0.750000 0.750000
v -0.500000 0.750000 0.250000
v 0.250000 0.750000 0.000000
v 1.000000 0.750000 -0.750000
v -0.250000 0.750000 0.500000
v -0.750000 0.750000 -1.000000
v 0.750000 0.750000 -1.000000
v -0.750000 0.750000 0.500000
v -0.750000 0.750000 -0.000000
v 0.500000 0.750000 -0.250000
v -1.000000 0.750000 -0.750000
v 0.500000 0.750000 -0.750000
v 0.750000 0.750000 -0.500000
v 0.250000 0.750000 -0.500000
v -0.500000 0.750000 -0.250000
v -0.500000 0.750000 -0.750000
v -0.250000 0.750000 -0.500000
v -0.750000 0.750000 -0.500000
v -1.000000 0.750000 -0.250000
v -0.250000 0.750000 -1.000000
v 0.500000 0.750000 0.750000
v 0.500000 0.750000 0.250000
v 0.750000 0.750000 0.500000
v 0.250000 0.750000 0.500000
v 0.750000 0.750000 0.000000
v -1.000000 0.750000 0.250000
v -0.750000 0.750000 1.000000
v 0.500000 0.750000 -1.000000
v 0.000000 0.750000 -0.500000
v 1.000000 0.750000 -0.250000
v -0.500000 0.750000 -0.000000
v -0.000000 0.750000 0.000000
v 0.000000 0.750000 -1.000000
v -0.000000 0.750000 0.750000
v 1.000000 0.750000 0.750000
v 0.500000 0.750000 -0.500000
v 1.000000 0.750000 0.250000
v -0.500000 0.750000 0.500000
v 0.250000 0.750000 1.000000
v 0.500000 0.750000 0.500000
v 0.250000 0.750000 -1.000000
v -0.000000 0.750000 -0.250000
v -0.250000 0.750000 0.000000
v 0.000000 0.750000 -0.750000
v 0.749999 0.750000 1.000000
v -0.000000 0.750000 0.250000
v -0.250000 0.750000 1.000000
v -0.500000 0.750000 -0.500000
v -1.000000 0.750000 -0.000000
v -0.000000 0.750000 1.000000
v 1.000000 0.750000 0.000000
v -0.500000 0.750000 -1.000000
v -0.686276 -0.028484 0.499497
v -0.686276 0.094069 0.499497
v -0.686276 -0.028484 -0.499497
v -0.686276 0.094069 -0.499497
v -0.563724 -0.028484 0.499497
v -0.563724 0.094069 0.499497
v -0.563724 -0.028484 -0.499497
v -0.563724 0.094069 -0.499497
vt 0.000796 0.835573
vt 0.000796 0.809616
vt 0.212387 0.809616
vt 0.212387 0.835573
vt 0.801217 0.821540
vt 0.801217 0.847497
vt 0.589627 0.847497
vt 0.589627 0.821540
vt 0.425578 0.782066
vt 0.425578 0.808023
vt 0.213988 0.808023
vt 0.213988 0.782066
vt 0.425578 0.809616
vt 0.425578 0.835573
vt 0.213988 0.835573
vt 0.213988 0.809616
vt 0.000796 0.725374
vt 0.000796 0.699417
vt 0.212387 0.699416
vt 0.212387 0.725373
vt 0.425579 0.699416
vt 0.425579 0.725373
vt 0.213988 0.725373
vt 0.213988 0.699417
vt 0.212387 0.726966
vt 0.212387 0.752923
vt 0.000796 0.752923
vt 0.000796 0.726966
vt 0.212387 0.754516
vt 0.212387 0.780473
vt 0.000796 0.780473
vt 0.000796 0.754516
vt 0.425579 0.754516
vt 0.425579 0.780473
vt 0.213988 0.780473
vt 0.213988 0.754516
vt 0.000796 0.808023
vt 0.000796 0.782066
vt 0.212387 0.782066
vt 0.212387 0.808023
vt 0.213988 0.697751
vt 0.213997 0.671794
vt 0.425588 0.671867
vt 0.425579 0.697824
vt 0.213988 0.752923
vt 0.213988 0.726966
vt 0.425579 0.726966
vt 0.425579 0.752923
vt 0.801217 0.793990
vt 0.801217 0.819947
vt 0.589627 0.819947
vt 0.589627 0.793990
vt 0.000796 0.670128
vt 0.000805 0.644171
vt 0.212396 0.644244
vt 0.212387 0.670201
vt 0.000796 0.697751
vt 0.000805 0.671794
vt 0.212396 0.671867
vt 0.212387 0.697824
vt 0.213988 0.670128
vt 0.213997 0.644171
vt 0.425587 0.644244
vt 0.425578 0.670201
vt 0.164427 0.944660
vt 0.164427 0.891709
vt 0.217378 0.891709
vt 0.217378 0.944660
vt 0.969839 0.561024
vt 0.969839 0.613975
vt 0.916888 0.613975
vt 0.916888 0.561024
vt 0.000796 0.999204
vt 0.000796 0.946253
vt 0.053747 0.946253
vt 0.053747 0.999204
vt 0.424403 0.000796
vt 0.424403 0.424403
vt 0.000796 0.424403
vt 0.000796 0.000797
vt 0.806208 0.792397
vt 0.753258 0.792397
vt 0.753258 0.397393
vt 0.806208 0.397393
vt 0.806208 0.395800
vt 0.753258 0.395800
vt 0.753258 0.000796
vt 0.806208 0.000796
vt 0.697121 0.395800
vt 0.644170 0.395800
vt 0.644170 0.000796
vt 0.697121 0.000796
vt 0.860752 0.792397
vt 0.807801 0.792397
vt 0.807801 0.397393
vt 0.860752 0.397393
vt 0.751665 0.792397
vt 0.698714 0.792397
vt 0.698714 0.397393
vt 0.751665 0.397393
vt 0.697121 0.792397
vt 0.644170 0.792397
vt 0.644170 0.397393
vt 0.697121 0.397393
vt 0.642578 0.792397
vt 0.589627 0.792397
vt 0.589627 0.397393
vt 0.642578 0.397393
vt 0.533490 0.792397
vt 0.480540 0.792397
vt 0.480540 0.397393
vt 0.533490 0.397393
vt 0.860752 0.395800
vt 0.807801 0.395800
vt 0.807801 0.000796
vt 0.860752 0.000796
vt 0.588034 0.792397
vt 0.535083 0.792397
vt 0.535083 0.397393
vt 0.588034 0.397393
vt 0.642578 0.395800
vt 0.589627 0.395800
vt 0.589627 0.000796
vt 0.642578 0.000796
vt 0.588034 0.395800
vt 0.535083 0.395800
vt 0.535083 0.000796
vt 0.588034 0.000796
vt 0.915295 0.397393
vt 0.915295 0.450344
vt 0.862345 0.450344
vt 0.862345 0.397393
vt 0.857353 0.901484
vt 0.857353 0.848533
vt 0.910304 0.848533
vt 0.910304 0.901484
vt 0.164427 0.890117
vt 0.164427 0.837166
vt 0.217378 0.837166
vt 0.217378 0.890117
vt 0.862345 0.777605
vt 0.862345 0.724654
vt 0.915295 0.724654
vt 0.915295 0.777605
vt 0.862345 0.723062
vt 0.862345 0.670111
vt 0.915295 0.670111
vt 0.915295 0.723062
vt 0.969839 0.615567
vt 0.969839 0.668518
vt 0.916888 0.668518
vt 0.916888 0.615567
vt 0.055340 0.999204
vt 0.055340 0.946253
vt 0.108291 0.946253
vt 0.108291 0.999204
vt 0.969839 0.164427
vt 0.969839 0.217378
vt 0.916888 0.217378
vt 0.916888 0.164427
vt 0.964848 0.793990
vt 0.964848 0.846941
vt 0.911897 0.846941
vt 0.911897 0.793990
vt 0.969839 0.328058
vt 0.969839 0.381009
vt 0.916888 0.381009
vt 0.916888 0.328058
vt 0.108291 0.891709
vt 0.108291 0.944660
vt 0.055340 0.944660
vt 0.055340 0.891709
vt 0.915295 0.395800
vt 0.862345 0.395800
vt 0.862345 0.000796
vt 0.915295 0.000796
vt 0.916888 0.777605
vt 0.916888 0.724654
vt 0.969839 0.724654
vt 0.969839 0.777605
vt 0.218971 0.890117
vt 0.218971 0.837166
vt 0.271922 0.837166
vt 0.271922 0.890117
vt 0.425997 0.533491
vt 0.425997 0.480540
vt 0.478948 0.480540
vt 0.478948 0.533491
vt 0.055340 0.890117
vt 0.055340 0.837166
vt 0.108291 0.837166
vt 0.108291 0.890117
vt 0.480540 0.901484
vt 0.480540 0.848533
vt 0.533490 0.848533
vt 0.533490 0.901484
vt 0.915296 0.506480
vt 0.915295 0.559431
vt 0.862345 0.559431
vt 0.862345 0.506480
vt 0.424404 0.535084
vt 0.424404 0.588034
vt 0.371453 0.588034
vt 0.318502 0.588035
vt 0.265549 0.588035
vt 0.212598 0.588034
vt 0.159648 0.588034
vt 0.106698 0.588034
vt 0.053747 0.588034
vt 0.000796 0.588034
vt 0.000796 0.535084
vt 0.435552 0.891709
vt 0.435552 0.944660
vt 0.382601 0.944660
vt 0.382601 0.891709
vt 0.969839 0.382601
vt 0.969839 0.435552
vt 0.916888 0.435552
vt 0.916888 0.382601
vt 0.424404 0.478946
vt 0.000796 0.478947
vt 0.000796 0.425996
vt 0.053747 0.425996
vt 0.106703 0.425996
vt 0.159655 0.425996
vt 0.212603 0.425996
vt 0.265553 0.425996
vt 0.318504 0.425996
vt 0.371454 0.425996
vt 0.424404 0.425996
vt 0.424403 0.480540
vt 0.424403 0.533491
vt 0.371453 0.533491
vt 0.318502 0.533491
vt 0.265551 0.533491
vt 0.212600 0.533491
vt 0.159649 0.533491
vt 0.106698 0.533491
vt 0.053747 0.533491
vt 0.000796 0.533491
vt 0.000796 0.480540
vt 0.000796 0.642578
vt 0.000796 0.589627
vt 0.053747 0.589627
vt 0.106698 0.589627
vt 0.159649 0.589627
vt 0.212600 0.589627
vt 0.265551 0.589627
vt 0.318501 0.589627
vt 0.371453 0.589627
vt 0.424403 0.589627
vt 0.424403 0.642578
vt 0.480540 0.956028
vt 0.480540 0.903077
vt 0.533490 0.903077
vt 0.533490 0.956028
vt 0.588034 0.848533
vt 0.588034 0.901484
vt 0.535083 0.901484
vt 0.535083 0.848533
vt 0.535083 0.846941
vt 0.535083 0.793990
vt 0.588034 0.793990
vt 0.588034 0.846940
vt 0.751665 0.395800
vt 0.698714 0.395800
vt 0.698714 0.000796
vt 0.751665 0.000796
vt 0.802810 0.846941
vt 0.802810 0.793990
vt 0.855761 0.793990
vt 0.855761 0.846941
vt 0.802810 0.901484
vt 0.802810 0.848533
vt 0.855761 0.848533
vt 0.855761 0.901484
vt 0.217378 0.946253
vt 0.217378 0.999204
vt 0.164427 0.999204
vt 0.164427 0.946253
vt 0.911897 0.901484
vt 0.911897 0.848533
vt 0.964848 0.848533
vt 0.964848 0.901484
vt 0.589627 0.902040
vt 0.589627 0.849089
vt 0.642578 0.849089
vt 0.642578 0.902040
vt 0.478947 0.395800
vt 0.425996 0.395800
vt 0.425996 0.000796
vt 0.478947 0.000796
vt 0.964848 0.903077
vt 0.964848 0.956028
vt 0.911897 0.956028
vt 0.911897 0.903077
vt 0.751665 0.903633
vt 0.751665 0.956584
vt 0.698714 0.956584
vt 0.698714 0.903633
vt 0.969839 0.273514
vt 0.969839 0.326465
vt 0.916888 0.326465
vt 0.916888 0.273514
vt 0.273514 0.890117
vt 0.273514 0.837166
vt 0.326465 0.837166
vt 0.326465 0.890117
vt 0.381009 0.891709
vt 0.381009 0.944660
vt 0.328058 0.944660
vt 0.328058 0.891709
vt 0.697121 0.903633
vt 0.697121 0.956584
vt 0.644170 0.956584
vt 0.644170 0.903633
vt 0.162834 0.946253
vt 0.162834 0.999204
vt 0.109884 0.999204
vt 0.109884 0.946253
vt 0.381009 0.837166
vt 0.381009 0.890117
vt 0.328058 0.890117
vt 0.328058 0.837166
vt 0.915295 0.451937
vt 0.915295 0.504887
vt 0.862345 0.504887
vt 0.862345 0.451937
vt 0.910304 0.903077
vt 0.910304 0.956028
vt 0.857353 0.956028
vt 0.857353 0.903077
vt 0.916888 0.162834
vt 0.916888 0.109884
vt 0.969839 0.109883
vt 0.969839 0.162834
vt 0.053747 0.891709
vt 0.053747 0.944660
vt 0.000796 0.944660
vt 0.000796 0.891709
vt 0.326465 0.891709
vt 0.326465 0.944660
vt 0.273514 0.944660
vt 0.273514 0.891709
vt 0.435552 0.837166
vt 0.435552 0.890117
vt 0.382601 0.890117
vt 0.382601 0.837166
vt 0.969839 0.218971
vt 0.969839 0.271921
vt 0.916888 0.271921
vt 0.916888 0.218971
vt 0.533490 0.793990
vt 0.533490 0.846941
vt 0.480540 0.846941
vt 0.480540 0.793990
vt 0.162834 0.837166
vt 0.162834 0.890117
vt 0.109884 0.890117
vt 0.109884 0.837166
vt 0.109884 0.944660
vt 0.109884 0.891709
vt 0.162834 0.891709
vt 0.162834 0.944660
vt 0.218971 0.944660
vt 0.218971 0.891709
vt 0.271922 0.891709
vt 0.271922 0.944660
vt 0.271922 0.946253
vt 0.271922 0.999204
vt 0.218971 0.999204
vt 0.218971 0.946253
vt 0.642578 0.903633
vt 0.642578 0.956584
vt 0.589627 0.956584
vt 0.589627 0.903633
vt 0.857353 0.846941
vt 0.857353 0.793990
vt 0.910304 0.793990
vt 0.910304 0.846941
vt 0.969839 0.055340
vt 0.969839 0.108291
vt 0.916888 0.108291
vt 0.916888 0.055340
vt 0.000796 0.890117
vt 0.000796 0.837166
vt 0.053747 0.837166
vt 0.053747 0.890117
vt 0.969839 0.000796
vt 0.969839 0.053747
vt 0.916888 0.053747
vt 0.916888 0.000796
vt 0.969839 0.506480
vt 0.969839 0.559431
vt 0.916888 0.559431
vt 0.916888 0.506480
vt 0.698714 0.902040
vt 0.698714 0.849089
vt 0.751665 0.849089
vt 0.751665 0.902040
vt 0.855761 0.903077
vt 0.855761 0.956028
vt 0.802810 0.956028
vt 0.802810 0.903077
vt 0.588034 0.903077
vt 0.588034 0.956028
vt 0.535083 0.956028
vt 0.535083 0.903077
vt 0.915295 0.615567
vt 0.915295 0.668518
vt 0.862345 0.668518
vt 0.862345 0.615567
vt 0.533490 0.395800
vt 0.480540 0.395800
vt 0.480540 0.000796
vt 0.533490 0.000796
vt 0.644170 0.902040
vt 0.644170 0.849089
vt 0.697121 0.849089
vt 0.697121 0.902040
vt 0.916888 0.723062
vt 0.916888 0.670111
vt 0.969839 0.670111
vt 0.969839 0.723062
vt 0.915295 0.561024
vt 0.915295 0.613975
vt 0.862345 0.613975
vt 0.862345 0.561024
vt 0.969839 0.451937
vt 0.969839 0.504887
vt 0.916888 0.504887
vt 0.916888 0.451937
vt 0.425997 0.478947
vt 0.425997 0.452990
vt 0.451954 0.452990
vt 0.451954 0.478947
vt 0.451953 0.397393
vt 0.451953 0.423350
vt 0.425996 0.423350
vt 0.425996 0.397393
vn 0.0000 0.0000 -1.0000
vn 0.0000 0.0000 1.0000
vn 0.0000 -1.0000 0.0000
vn 0.0000 1.0000 0.0000
vn 1.0000 0.0000 -0.0000
vn -1.0000 0.0000 0.0000
usemtl Material
s off
f 1/1/1 2/2/1 4/3/1 3/4/1
f 7/5/2 8/6/2 6/7/2 5/8/2
f 3/9/3 7/10/3 5/11/3 1/12/3
f 8/13/4 4/14/4 2/15/4 6/16/4
f 9/17/5 10/18/5 12/19/5 11/20/5
f 15/21/6 16/22/6 14/23/6 13/24/6
f 11/25/3 15/26/3 13/27/3 9/28/3
f 16/29/4 12/30/4 10/31/4 14/32/4
f 17/33/6 18/34/6 20/35/6 19/36/6
f 23/37/5 24/38/5 22/39/5 21/40/5
f 19/41/3 23/42/3 21/43/3 17/44/3
f 24/45/4 20/46/4 18/47/4 22/48/4
f 25/49/2 26/50/2 28/51/2 27/52/2
f 31/53/1 32/54/1 30/55/1 29/56/1
f 27/57/3 31/58/3 29/59/3 25/60/3
f 32/61/4 28/62/4 26/63/4 30/64/4
f 61/65/4 100/66/4 130/67/4 90/68/4
f 62/69/4 123/70/4 113/71/4 84/72/4
f 63/73/4 81/74/4 48/75/4 108/76/4
f 33/77/3 34/78/3 35/79/3 36/80/3
f 102/81/1 71/82/1 56/83/1 57/84/1
f 129/85/6 97/86/6 45/87/6 37/88/6
f 82/89/6 119/90/6 40/91/6 59/92/6
f 119/93/2 89/94/2 58/95/2 40/96/2
f 93/97/5 117/98/5 39/99/5 43/100/5
f 97/101/2 72/102/2 54/103/2 45/104/2
f 104/105/2 121/106/2 38/107/2 55/108/2
f 94/109/6 76/110/6 42/111/6 41/112/6
f 99/113/1 129/114/1 37/115/1 44/116/1
f 121/117/5 102/118/5 57/119/5 38/120/5
f 71/121/6 104/122/6 55/123/6 56/124/6
f 89/125/5 63/126/5 60/127/5 58/128/5
f 42/129/4 43/130/4 39/131/4 41/132/4
f 45/133/4 54/134/4 44/135/4 37/136/4
f 55/137/4 38/138/4 57/139/4 56/140/4
f 40/141/4 58/142/4 60/143/4 59/144/4
f 99/145/4 50/146/4 100/147/4 61/148/4
f 129/149/4 99/150/4 61/151/4 96/152/4
f 96/153/4 61/154/4 90/155/4 112/156/4
f 95/157/4 110/158/4 123/159/4 62/160/4
f 117/161/4 95/162/4 62/163/4 91/164/4
f 91/165/4 62/166/4 84/167/4 51/168/4
f 89/169/4 52/170/4 81/171/4 63/172/4
f 63/173/1 82/174/1 59/175/1 60/176/1
f 82/177/4 63/178/4 108/179/4 53/180/4
f 105/181/4 68/182/4 115/183/4 64/184/4
f 121/185/4 105/186/4 64/187/4 102/188/4
f 64/189/4 115/190/4 131/191/4 120/192/4
f 102/193/4 64/194/4 120/195/4 70/196/4
f 84/197/4 113/198/4 127/199/4 65/200/4
f 34/201/1 47/202/1 126/203/1 70/204/1 120/205/1 131/206/1 128/207/1 53/208/1 108/209/1 48/210/1 35/211/1
f 51/212/4 84/213/4 65/214/4 103/215/4
f 103/216/4 65/217/4 105/218/4 121/219/4
f 33/220/2 36/221/2 49/222/2 87/223/2 133/224/2 101/225/2 114/226/2 122/227/2 109/228/2 88/229/2 46/230/2
f 35/231/5 48/232/5 81/233/5 52/234/5 107/235/5 130/236/5 100/237/5 50/238/5 92/239/5 49/240/5 36/241/5
f 33/242/6 46/243/6 85/244/6 67/245/6 111/246/6 132/247/6 118/248/6 69/249/6 116/250/6 47/251/6 34/252/6
f 106/253/4 51/254/4 103/255/4 66/256/4
f 132/257/4 106/258/4 66/259/4 118/260/4
f 118/261/4 66/262/4 104/263/4 69/264/4
f 72/265/5 99/266/5 44/267/5 54/268/5
f 69/269/4 104/270/4 71/271/4 116/272/4
f 116/273/4 71/274/4 126/275/4 47/276/4
f 65/277/4 127/278/4 68/279/4 105/280/4
f 87/281/4 49/282/4 92/283/4 72/284/4
f 133/285/4 87/286/4 72/287/4 97/288/4
f 117/289/1 94/290/1 41/291/1 39/292/1
f 101/293/4 133/294/4 97/295/4 73/296/4
f 114/297/4 101/298/4 73/299/4 125/300/4
f 125/301/4 73/302/4 98/303/4 110/304/4
f 66/305/4 103/306/4 121/307/4 104/308/4
f 98/309/4 129/310/4 96/311/4 74/312/4
f 110/313/4 98/314/4 74/315/4 123/316/4
f 123/317/4 74/318/4 124/319/4 113/320/4
f 122/321/4 114/322/4 125/323/4 75/324/4
f 109/325/4 122/326/4 75/327/4 93/328/4
f 93/329/4 75/330/4 95/331/4 117/332/4
f 71/333/4 102/334/4 70/335/4 126/336/4
f 88/337/4 109/338/4 93/339/4 76/340/4
f 46/341/4 88/342/4 76/343/4 85/344/4
f 85/345/4 76/346/4 94/347/4 67/348/4
f 94/349/4 117/350/4 91/351/4 77/352/4
f 67/353/4 94/354/4 77/355/4 111/356/4
f 111/357/4 77/358/4 106/359/4 132/360/4
f 90/361/4 130/362/4 107/363/4 78/364/4
f 112/365/4 90/366/4 78/367/4 83/368/4
f 83/369/4 78/370/4 89/371/4 119/372/4
f 124/373/4 112/374/4 83/375/4 79/376/4
f 113/377/4 124/378/4 79/379/4 127/380/4
f 127/381/4 79/382/4 86/383/4 68/384/4
f 86/385/4 119/386/4 82/387/4 80/388/4
f 68/389/4 86/390/4 80/391/4 115/392/4
f 115/393/4 80/394/4 128/395/4 131/396/4
f 72/397/4 92/398/4 50/399/4 99/400/4
f 73/401/4 97/402/4 129/403/4 98/404/4
f 74/405/4 96/406/4 112/407/4 124/408/4
f 75/409/4 125/410/4 110/411/4 95/412/4
f 76/413/2 93/414/2 43/415/2 42/416/2
f 77/417/4 91/418/4 51/419/4 106/420/4
f 78/421/4 107/422/4 52/423/4 89/424/4
f 79/425/4 83/426/4 119/427/4 86/428/4
f 80/429/4 82/430/4 53/431/4 128/432/4
f 136/433/1 137/434/1 141/435/1 140/436/1
f 138/437/2 139/438/2 135/439/2 134/440/2
