# Blender v2.79 (sub 0) OBJ File: 'kitchen_table3.blend'
# www.blender.org
mtllib kitchen_table3.mtl
o Cube.004
v 1.000000 1.000000 -0.999999
v 0.999999 1.000000 1.000001
v -1.000000 1.000000 1.000000
v -1.000000 1.000000 -1.000000
v 1.000000 0.750000 -1.000000
v 0.999999 0.750000 1.000000
v -1.000000 0.750000 1.000000
v -1.000000 0.750000 -1.000000
v -0.686276 -0.028484 0.999995
v -0.686276 0.094069 0.999995
v -0.563724 -0.028484 0.999995
v -0.563724 0.094069 0.999995
v -0.686276 0.094069 -1.000005
v -0.686276 -0.028484 -1.000005
v -0.563724 0.094069 -1.000005
v -0.563724 -0.028484 -1.000005
v 0.559222 0.094069 0.999995
v 0.559222 -0.028484 0.999995
v 0.681774 0.094069 0.999995
v 0.681774 -0.028484 0.999995
v 0.681774 -0.028484 -1.000005
v 0.559222 -0.028484 -1.000005
v 0.681774 0.094069 -1.000005
v 0.559222 0.094069 -1.000005
vt 0.500282 0.593879
vt 0.500282 0.563275
vt 0.530886 0.563275
vt 0.530886 0.593879
vt 0.499718 0.000282
vt 0.499718 0.499718
vt 0.000282 0.499718
vt 0.000282 0.000282
vt 0.000282 0.688698
vt 0.000282 0.626268
vt 0.499718 0.626268
vt 0.499718 0.688698
vt 0.499718 0.689261
vt 0.499718 0.751691
vt 0.000282 0.751691
vt 0.000282 0.689261
vt 0.499718 0.625705
vt 0.000282 0.625705
vt 0.000282 0.563275
vt 0.499718 0.563275
vt 0.000282 0.500282
vt 0.499719 0.500282
vt 0.499719 0.562712
vt 0.000282 0.562712
vt 0.500282 0.531545
vt 0.500282 0.500941
vt 0.530886 0.500941
vt 0.530886 0.531545
vt 0.562053 0.500941
vt 0.562053 0.531545
vt 0.531449 0.531545
vt 0.531449 0.500941
vt 0.999718 0.719865
vt 0.500282 0.719865
vt 0.500282 0.689261
vt 0.999718 0.689261
vt 0.499718 0.783030
vt 0.000282 0.782858
vt 0.000292 0.752254
vt 0.499729 0.752427
vt 0.499718 0.939429
vt 0.499718 0.970033
vt 0.000282 0.970033
vt 0.000282 0.939429
vt 0.499718 0.814197
vt 0.000282 0.814197
vt 0.000282 0.783594
vt 0.499718 0.783593
vt 0.999718 0.000282
vt 0.999718 0.499718
vt 0.500282 0.499718
vt 0.500282 0.000282
vt 0.000282 0.877095
vt 0.499718 0.877095
vt 0.499718 0.907699
vt 0.000282 0.907699
vt 0.000282 0.908262
vt 0.499718 0.908262
vt 0.499718 0.938866
vt 0.000282 0.938866
vt 0.000282 0.845365
vt 0.000282 0.814761
vt 0.499718 0.814761
vt 0.499718 0.845365
vt 0.000282 0.876532
vt 0.000282 0.845928
vt 0.499718 0.845928
vt 0.499718 0.876532
vt 0.530886 0.532108
vt 0.530886 0.562712
vt 0.500282 0.562712
vt 0.500282 0.532108
vn 0.0000 0.0000 -1.0000
vn 0.0000 -1.0000 -0.0000
vn -1.0000 0.0000 -0.0000
vn -0.0000 -0.0000 1.0000
vn 1.0000 0.0000 0.0000
vn 0.0000 1.0000 0.0000
usemtl Material.001
s off
f 18/1/1 17/2/1 19/3/1 20/4/1
f 1/5/2 2/6/2 3/7/2 4/8/2
f 1/9/3 5/10/3 6/11/3 2/12/3
f 2/13/1 6/14/1 7/15/1 3/16/1
f 1/17/4 4/18/4 8/19/4 5/20/4
f 4/21/5 3/22/5 7/23/5 8/24/5
f 14/25/1 13/26/1 15/27/1 16/28/1
f 11/29/4 12/30/4 10/31/4 9/32/4
f 12/33/6 15/34/6 13/35/6 10/36/6
f 9/37/2 14/38/2 16/39/2 11/40/2
f 9/41/3 10/42/3 13/43/3 14/44/3
f 11/45/5 16/46/5 15/47/5 12/48/5
f 5/49/6 8/50/6 7/51/6 6/52/6
f 22/53/6 18/54/6 20/55/6 21/56/6
f 21/57/3 20/58/3 19/59/3 23/60/3
f 22/61/5 24/62/5 17/63/5 18/64/5
f 24/65/2 23/66/2 19/67/2 17/68/2
f 21/69/4 23/70/4 24/71/4 22/72/4
