# Blender v2.79 (sub 0) OBJ File: 'kitchen_table.blend'
# www.blender.org
mtllib kitchen_table.mtl
o Cube.004
v -0.502477 -0.028484 -0.677112
v -0.502477 0.094069 -0.677112
v 0.496517 -0.028484 -0.677112
v 0.496517 0.094069 -0.677112
v -0.502477 -0.028484 -0.554560
v -0.502477 0.094069 -0.554560
v 0.496517 -0.028484 -0.554560
v 0.496517 0.094069 -0.554560
v 0.681774 -0.028484 -0.507255
v 0.681774 0.094069 -0.507255
v 0.681774 -0.028484 0.491740
v 0.681774 0.094069 0.491740
v 0.559222 -0.028484 -0.507255
v 0.559222 0.094069 -0.507255
v 0.559222 -0.028484 0.491740
v 0.559222 0.094069 0.491740
v -0.686276 -0.028484 0.499497
v -0.686276 0.094069 0.499497
v -0.686276 -0.028484 -0.499497
v -0.686276 0.094069 -0.499497
v -0.563724 -0.028484 0.499497
v -0.563724 0.094069 0.499497
v -0.563724 -0.028484 -0.499497
v -0.563724 0.094069 -0.499497
v 0.499497 -0.028484 0.687802
v 0.499497 0.094069 0.687802
v -0.499497 -0.028484 0.687802
v -0.499497 0.094069 0.687802
v 0.499497 -0.028484 0.565249
v 0.499497 0.094069 0.565249
v -0.499497 -0.028484 0.565249
v -0.499497 0.094069 0.565249
v 1.000000 1.000000 -0.999999
v 0.999999 1.000000 1.000001
v -1.000000 1.000000 1.000000
v -1.000000 1.000000 -1.000000
v -0.500000 -1.114956 -0.500000
v 0.500000 -1.114956 0.500000
v 0.500000 -1.114956 -0.500000
v -0.500000 -1.114956 0.500000
v 0.750000 -1.114956 -0.500000
v 0.750000 -1.114956 -0.750000
v 0.500000 -1.114956 -0.750000
v -0.750000 -1.114956 -0.500000
v -0.500000 -1.114956 -0.750000
v 1.000000 0.750000 -1.000000
v 0.999999 0.750000 1.000000
v -1.000000 0.750000 1.000000
v -1.000000 0.750000 -1.000000
v -1.000000 0.750000 -0.500000
v 0.500000 0.750000 0.000000
v -1.000000 0.750000 0.500000
v -0.500000 0.750000 1.000000
v -0.750000 -1.114956 -0.750000
v 0.750000 -1.114956 0.500000
v 0.750000 -1.114956 0.750000
v 0.500000 -1.114956 0.750000
v -0.750000 -1.114956 0.500000
v -0.500000 -1.114956 0.750000
v -0.750000 -1.114956 0.750000
v -0.750000 0.750000 -0.250000
v 0.250000 0.750000 -0.250000
v -0.750000 0.750000 0.750000
v 0.250000 0.750000 0.750000
v 0.250000 0.750000 0.250000
v 0.750000 0.750000 0.250000
v 1.000000 0.750000 -0.500000
v -0.000000 0.750000 0.500000
v 1.000000 0.750000 0.500000
v 0.500000 0.750000 1.000000
v 0.750000 0.750000 0.750000
v -0.750000 0.750000 -0.750000
v -0.250000 0.750000 -0.750000
v -0.250000 0.750000 -0.250000
v 0.250000 0.750000 -0.750000
v 0.750000 0.750000 -0.750000
v 0.750000 0.750000 -0.250000
v -0.750000 0.750000 0.250000
v -0.250000 0.750000 0.250000
v -0.250000 0.750000 0.750000
v -1.000000 0.750000 0.750000
v -0.500000 0.750000 0.750000
v -0.500000 0.750000 0.250000
v 0.250000 0.750000 0.000000
v 1.000000 0.750000 -0.750000
v -0.250000 0.750000 0.500000
v -0.750000 0.750000 -1.000000
v 0.750000 0.750000 -1.000000
v -0.750000 0.750000 0.500000
v -0.750000 0.750000 -0.000000
v 0.500000 0.750000 -0.250000
v -1.000000 0.750000 -0.750000
v 0.500000 0.750000 -0.750000
v 0.750000 0.750000 -0.500000
v 0.250000 0.750000 -0.500000
v -0.500000 0.750000 -0.250000
v -0.500000 0.750000 -0.750000
v -0.250000 0.750000 -0.500000
v -0.750000 0.750000 -0.500000
v -1.000000 0.750000 -0.250000
v -0.250000 0.750000 -1.000000
v 0.500000 0.750000 0.750000
v 0.500000 0.750000 0.250000
v 0.750000 0.750000 0.500000
v 0.250000 0.750000 0.500000
v 0.750000 0.750000 0.000000
v -1.000000 0.750000 0.250000
v -0.750000 0.750000 1.000000
v 0.500000 0.750000 -1.000000
v 0.000000 0.750000 -0.500000
v 1.000000 0.750000 -0.250000
v -0.500000 0.750000 -0.000000
v -0.000000 0.750000 0.000000
v 0.000000 0.750000 -1.000000
v -0.000000 0.750000 0.750000
v 1.000000 0.750000 0.750000
v 0.500000 0.750000 -0.500000
v 1.000000 0.750000 0.250000
v -0.500000 0.750000 0.500000
v 0.250000 0.750000 1.000000
v 0.500000 0.750000 0.500000
v 0.250000 0.750000 -1.000000
v -0.000000 0.750000 -0.250000
v -0.250000 0.750000 0.000000
v 0.000000 0.750000 -0.750000
v 0.749999 0.750000 1.000000
v -0.000000 0.750000 0.250000
v -0.250000 0.750000 1.000000
v -0.500000 0.750000 -0.500000
v -1.000000 0.750000 -0.000000
v -0.000000 0.750000 1.000000
v 1.000000 0.750000 0.000000
v -0.500000 0.750000 -1.000000
v -0.686276 -0.028484 0.499497
v -0.686276 0.094069 0.499497
v -0.686276 -0.028484 -0.499497
v -0.686276 0.094069 -0.499497
v -0.563724 -0.028484 0.499497
v -0.563724 0.094069 0.499497
v -0.563724 -0.028484 -0.499497
v -0.563724 0.094069 -0.499497
vn 0.0000 0.0000 -1.0000
vn 0.0000 0.0000 1.0000
vn 0.0000 -1.0000 0.0000
vn 0.0000 1.0000 0.0000
vn 1.0000 0.0000 -0.0000
vn -1.0000 0.0000 0.0000
usemtl Material
s off
f 1//1 2//1 4//1 3//1
f 7//2 8//2 6//2 5//2
f 3//3 7//3 5//3 1//3
f 8//4 4//4 2//4 6//4
f 9//5 10//5 12//5 11//5
f 15//6 16//6 14//6 13//6
f 11//3 15//3 13//3 9//3
f 16//4 12//4 10//4 14//4
f 17//6 18//6 20//6 19//6
f 23//5 24//5 22//5 21//5
f 19//3 23//3 21//3 17//3
f 24//4 20//4 18//4 22//4
f 25//2 26//2 28//2 27//2
f 31//1 32//1 30//1 29//1
f 27//3 31//3 29//3 25//3
f 32//4 28//4 26//4 30//4
f 61//4 100//4 130//4 90//4
f 62//4 123//4 113//4 84//4
f 63//4 81//4 48//4 108//4
f 33//3 34//3 35//3 36//3
f 102//1 71//1 56//1 57//1
f 129//6 97//6 45//6 37//6
f 82//6 119//6 40//6 59//6
f 119//2 89//2 58//2 40//2
f 93//5 117//5 39//5 43//5
f 97//2 72//2 54//2 45//2
f 104//2 121//2 38//2 55//2
f 94//6 76//6 42//6 41//6
f 99//1 129//1 37//1 44//1
f 121//5 102//5 57//5 38//5
f 71//6 104//6 55//6 56//6
f 89//5 63//5 60//5 58//5
f 42//4 43//4 39//4 41//4
f 45//4 54//4 44//4 37//4
f 55//4 38//4 57//4 56//4
f 40//4 58//4 60//4 59//4
f 99//4 50//4 100//4 61//4
f 129//4 99//4 61//4 96//4
f 96//4 61//4 90//4 112//4
f 95//4 110//4 123//4 62//4
f 117//4 95//4 62//4 91//4
f 91//4 62//4 84//4 51//4
f 89//4 52//4 81//4 63//4
f 63//1 82//1 59//1 60//1
f 82//4 63//4 108//4 53//4
f 105//4 68//4 115//4 64//4
f 121//4 105//4 64//4 102//4
f 64//4 115//4 131//4 120//4
f 102//4 64//4 120//4 70//4
f 84//4 113//4 127//4 65//4
f 34//1 47//1 126//1 70//1 120//1 131//1 128//1 53//1 108//1 48//1 35//1
f 51//4 84//4 65//4 103//4
f 103//4 65//4 105//4 121//4
f 33//2 36//2 49//2 87//2 133//2 101//2 114//2 122//2 109//2 88//2 46//2
f 35//5 48//5 81//5 52//5 107//5 130//5 100//5 50//5 92//5 49//5 36//5
f 33//6 46//6 85//6 67//6 111//6 132//6 118//6 69//6 116//6 47//6 34//6
f 106//4 51//4 103//4 66//4
f 132//4 106//4 66//4 118//4
f 118//4 66//4 104//4 69//4
f 72//5 99//5 44//5 54//5
f 69//4 104//4 71//4 116//4
f 116//4 71//4 126//4 47//4
f 65//4 127//4 68//4 105//4
f 87//4 49//4 92//4 72//4
f 133//4 87//4 72//4 97//4
f 117//1 94//1 41//1 39//1
f 101//4 133//4 97//4 73//4
f 114//4 101//4 73//4 125//4
f 125//4 73//4 98//4 110//4
f 66//4 103//4 121//4 104//4
f 98//4 129//4 96//4 74//4
f 110//4 98//4 74//4 123//4
f 123//4 74//4 124//4 113//4
f 122//4 114//4 125//4 75//4
f 109//4 122//4 75//4 93//4
f 93//4 75//4 95//4 117//4
f 71//4 102//4 70//4 126//4
f 88//4 109//4 93//4 76//4
f 46//4 88//4 76//4 85//4
f 85//4 76//4 94//4 67//4
f 94//4 117//4 91//4 77//4
f 67//4 94//4 77//4 111//4
f 111//4 77//4 106//4 132//4
f 90//4 130//4 107//4 78//4
f 112//4 90//4 78//4 83//4
f 83//4 78//4 89//4 119//4
f 124//4 112//4 83//4 79//4
f 113//4 124//4 79//4 127//4
f 127//4 79//4 86//4 68//4
f 86//4 119//4 82//4 80//4
f 68//4 86//4 80//4 115//4
f 115//4 80//4 128//4 131//4
f 72//4 92//4 50//4 99//4
f 73//4 97//4 129//4 98//4
f 74//4 96//4 112//4 124//4
f 75//4 125//4 110//4 95//4
f 76//2 93//2 43//2 42//2
f 77//4 91//4 51//4 106//4
f 78//4 107//4 52//4 89//4
f 79//4 83//4 119//4 86//4
f 80//4 82//4 53//4 128//4
f 136//1 137//1 141//1 140//1
f 138//2 139//2 135//2 134//2
