# Blender v2.79 (sub 0) OBJ File: 'kitchen_wooden_cuisine_box.blend'
# www.blender.org
mtllib kitchen_wooden_cuisine_box.mtl
o Cube.001
v 0.858545 0.101214 -0.794929
v 0.858544 0.101214 0.794929
v -0.858545 0.101214 0.794929
v -0.858544 0.101214 -0.794929
v 0.000000 0.101214 -0.794929
v -0.858544 0.101214 -0.000000
v -0.000000 0.101214 0.794929
v 0.858544 0.101214 0.000000
v 0.953939 0.893886 -0.894929
v 0.953938 0.893886 0.894930
v -0.953939 0.893886 0.894929
v -0.953938 0.893886 -0.894929
v 0.953938 0.000000 -0.894929
v 0.953938 0.000000 0.894930
v -0.953938 0.000000 0.894929
v -0.953938 0.000000 -0.894930
v 0.953938 0.893886 0.000000
v 0.000000 0.893886 -0.894929
v -0.000001 0.893886 0.894929
v -0.953938 0.893886 -0.000000
v 0.000000 0.000000 -0.894929
v -0.953938 0.000000 -0.000000
v -0.000000 0.000000 0.894929
v 0.953938 0.000000 0.000000
v -0.858544 0.893886 -0.794929
v -0.858545 0.893886 -0.000000
v -0.858545 0.893886 0.794929
v -0.000000 0.893886 0.794929
v 0.858544 0.893886 0.794930
v 0.000000 0.893886 -0.794929
v 0.858544 0.893886 0.000000
v 0.858545 0.893886 -0.794929
v 1.136469 0.567752 -0.120445
v 1.136469 0.326862 -0.120445
v 1.136469 0.567752 0.120445
v 1.136469 0.326862 0.120445
v 1.012502 0.567752 -0.120445
v 1.012502 0.326862 -0.120445
v 1.012502 0.567752 0.120445
v 1.012502 0.326862 0.120445
v 1.012218 0.502583 -0.055276
v 1.012218 0.392031 -0.055276
v 1.012218 0.502583 0.055276
v 1.012218 0.392031 0.055276
v 0.954272 0.502583 -0.055276
v 0.954272 0.392031 -0.055276
v 0.954272 0.502583 0.055276
v 0.954272 0.392031 0.055276
vn -1.0000 -0.0000 -0.0000
vn 0.0000 0.0000 -1.0000
vn 1.0000 0.0000 0.0000
vn 0.0000 -1.0000 0.0000
vn -0.0000 -0.0000 1.0000
vn 0.0000 1.0000 -0.0000
usemtl Material.002
s off
f 8//1 2//1 29//1 31//1
f 7//2 3//2 27//2 28//2
f 6//3 4//3 25//3 26//3
f 3//3 6//3 26//3 27//3
f 2//2 7//2 28//2 29//2
f 1//1 8//1 31//1 32//1
f 4//4 1//4 2//4 3//4
f 24//3 17//3 10//3 14//3
f 23//5 19//5 11//5 15//5
f 22//1 20//1 12//1 16//1
f 18//2 21//2 16//2 12//2
f 9//2 13//2 21//2 18//2
f 15//1 11//1 20//1 22//1
f 14//5 10//5 19//5 23//5
f 13//3 9//3 17//3 24//3
f 17//6 31//6 29//6 28//6 19//6 10//6
f 9//6 18//6 30//6 32//6 31//6 17//6
f 18//6 12//6 20//6 26//6 25//6 30//6
f 16//6 15//6 14//6 13//6
f 30//5 5//5 1//5 32//5
f 28//6 27//6 26//6 20//6 11//6 19//6
f 25//5 4//5 5//5 30//5
f 33//1 34//1 36//1 35//1
f 35//2 36//2 40//2 39//2
f 39//3 40//3 38//3 37//3
f 37//5 38//5 34//5 33//5
f 35//4 39//4 37//4 33//4
f 40//6 36//6 34//6 38//6
f 41//1 42//1 44//1 43//1
f 43//2 44//2 48//2 47//2
f 47//3 48//3 46//3 45//3
f 45//5 46//5 42//5 41//5
f 43//4 47//4 45//4 41//4
f 48//6 44//6 42//6 46//6
