# Blender v2.79 (sub 0) OBJ File: 'wall_wooden_shelf.blend'
# www.blender.org
mtllib wall_wooden_shelf.mtl
o Cube
v -0.816488 0.744426 1.002642
v 0.807641 0.744426 1.002642
v 0.807641 0.744426 -0.095208
v -0.816488 0.744426 -0.095208
v -0.816487 0.991374 1.002643
v 0.807641 0.991374 1.002642
v 0.807641 0.991374 -0.095208
v -0.816488 0.991374 -0.095208
v 0.993691 0.744426 1.002642
v 0.993691 0.744426 -0.095208
v 0.993692 0.991374 1.002642
v 0.993691 0.991374 -0.095208
v -1.002538 0.744426 1.002642
v -1.002539 0.744426 -0.095208
v -1.002538 0.991374 1.002643
v -1.002538 0.991374 -0.095208
v -0.816487 1.265257 1.002643
v -0.816488 1.265257 -0.095208
v 0.807641 1.265257 1.002642
v 0.807641 1.265257 -0.095208
v 0.993692 1.265257 1.002642
v 0.993691 1.265257 -0.095208
v -1.002538 1.265257 1.002643
v -1.002538 1.265257 -0.095208
v -0.816488 0.185474 1.002642
v -0.816488 0.530721 -0.067358
v 0.807641 0.185474 1.002642
v 0.807641 0.530721 -0.067358
v 0.993691 0.185474 1.002642
v 0.993691 0.530721 -0.067358
v -1.002538 0.185474 1.002642
v -1.002539 0.530721 -0.067358
vt 0.636706 0.829602
vt 0.441990 0.829602
vt 0.441990 0.999580
vt 0.636706 0.999580
vt 0.636706 0.828762
vt 0.636706 0.658784
vt 0.441990 0.658784
vt 0.441990 0.828762
vt 0.952624 0.195976
vt 0.782646 0.195976
vt 0.782646 0.390693
vt 0.952624 0.390693
vt 0.914349 0.658784
vt 0.914349 0.874739
vt 0.933821 0.874739
vt 0.933821 0.658784
vt 0.637546 0.829602
vt 0.637546 0.999580
vt 0.832263 0.999580
vt 0.832263 0.829602
vt 0.391533 0.195976
vt 0.391533 0.411931
vt 0.586250 0.411931
vt 0.586249 0.195976
vt 0.390693 0.637546
vt 0.195976 0.637546
vt 0.195976 0.832263
vt 0.390693 0.832263
vt 0.833102 0.195136
vt 0.852574 0.195136
vt 0.852574 0.000420
vt 0.833102 0.000420
vt 0.893197 0.000420
vt 0.873725 0.000420
vt 0.873725 0.195136
vt 0.893197 0.195136
vt 0.811951 0.827362
vt 0.811951 0.658784
vt 0.792480 0.658784
vt 0.792480 0.827362
vt 0.195137 0.637546
vt 0.000420 0.637546
vt 0.000420 0.832263
vt 0.195137 0.832263
vt 0.872886 0.000420
vt 0.853414 0.000420
vt 0.853414 0.195136
vt 0.872886 0.195136
vt 0.391533 0.195137
vt 0.560038 0.190197
vt 0.832263 0.000420
vt 0.391533 0.000420
vt 0.894037 0.195136
vt 0.913508 0.195136
vt 0.913508 0.000420
vt 0.894037 0.000420
vt 0.781806 0.432242
vt 0.781806 0.412771
vt 0.587089 0.412771
vt 0.587089 0.432243
vt 0.391533 0.412771
vt 0.391533 0.432243
vt 0.586249 0.432243
vt 0.586249 0.412771
vt 0.914349 0.441990
vt 0.914349 0.657944
vt 0.933821 0.657944
vt 0.933821 0.441990
vt 0.441990 0.441990
vt 0.441990 0.657944
vt 0.636706 0.657944
vt 0.636706 0.441990
vt 0.587089 0.195976
vt 0.587089 0.411931
vt 0.781806 0.411931
vt 0.781806 0.195976
vt 0.391533 0.637546
vt 0.391533 0.853501
vt 0.411004 0.853501
vt 0.411004 0.637546
vt 0.637546 0.441990
vt 0.637546 0.657944
vt 0.832263 0.657944
vt 0.832263 0.441990
vt 0.411844 0.637546
vt 0.411844 0.853501
vt 0.431316 0.853501
vt 0.431316 0.637546
vt 0.894038 0.773836
vt 0.913510 0.773836
vt 0.913510 0.441990
vt 0.894038 0.441990
vt 0.893198 0.441990
vt 0.873726 0.441990
vt 0.873726 0.773833
vt 0.893198 0.773833
vt 0.872887 0.882716
vt 0.872887 0.441990
vt 0.853414 0.441990
vt 0.853415 0.882716
vt 0.000420 0.636706
vt 0.168925 0.631767
vt 0.441150 0.441990
vt 0.000420 0.441990
vt 0.390693 0.441150
vt 0.390693 0.000420
vt 0.200916 0.272645
vt 0.195976 0.441150
vt 0.195137 0.441150
vt 0.195137 0.000420
vt 0.005359 0.272645
vt 0.000420 0.441150
vt 0.852575 0.882716
vt 0.852575 0.441990
vt 0.833102 0.441990
vt 0.833103 0.882716
vt 0.832263 0.827362
vt 0.832262 0.658784
vt 0.812791 0.658784
vt 0.812791 0.827362
vn 0.0000 -1.0000 -0.0000
vn 0.0000 1.0000 0.0000
vn 0.0000 -0.0000 1.0000
vn 0.0000 0.0000 -1.0000
vn 1.0000 0.0000 -0.0000
vn 0.0000 -0.1292 -0.9916
vn -1.0000 0.0000 0.0000
vn 0.0000 -0.9517 -0.3071
usemtl Material
s off
f 1/1/1 4/2/1 3/3/1 2/4/1
f 5/5/2 6/6/2 7/7/2 8/8/2
f 1/9/3 2/10/3 6/11/3 5/12/3
f 7/13/4 20/14/4 22/15/4 12/16/4
f 3/17/4 4/18/4 8/19/4 7/20/4
f 8/21/5 18/22/5 17/23/5 5/24/5
f 9/25/5 10/26/5 12/27/5 11/28/5
f 7/29/4 12/30/4 10/31/4 3/32/4
f 2/33/3 9/34/3 11/35/3 6/36/3
f 10/37/6 30/38/6 28/39/6 3/40/6
f 15/41/7 16/42/7 14/43/7 13/44/7
f 4/45/4 14/46/4 16/47/4 8/48/4
f 14/49/7 32/50/7 31/51/7 13/52/7
f 5/53/3 15/54/3 13/55/3 1/56/3
f 19/57/2 21/58/2 22/59/2 20/60/2
f 18/61/2 24/62/2 23/63/2 17/64/2
f 16/65/4 24/66/4 18/67/4 8/68/4
f 15/69/7 23/70/7 24/71/7 16/72/7
f 6/73/7 19/74/7 20/75/7 7/76/7
f 11/77/3 21/78/3 19/79/3 6/80/3
f 12/81/5 22/82/5 21/83/5 11/84/5
f 5/85/3 17/86/3 23/87/3 15/88/3
f 28/89/8 30/90/8 29/91/8 27/92/8
f 25/93/8 31/94/8 32/95/8 26/96/8
f 13/97/3 31/98/3 25/99/3 1/100/3
f 3/101/7 28/102/7 27/103/7 2/104/7
f 1/105/5 25/106/5 26/107/5 4/108/5
f 9/109/5 29/110/5 30/111/5 10/112/5
f 2/113/3 27/114/3 29/115/3 9/116/3
f 4/117/6 26/118/6 32/119/6 14/120/6
